<svg xmlns="http://www.w3.org/2000/svg" aria-hidden="true" style="position:absolute;width:0;height:0;overflow:hidden">
  <symbol id="icon-menu" viewBox="0 0 24 24">
    <line x1="3" y1="6" x2="21" y2="6"/>
    <line x1="3" y1="12" x2="21" y2="12"/>
    <line x1="3" y1="18" x2="21" y2="18"/>
  </symbol>

  <symbol id="icon-logout" viewBox="0 0 24 24">
    <path d="M9 21H5a2 2 0 0 1-2-2V5a2 2 0 0 1 2-2h4"/>
    <polyline points="16 17 21 12 16 7"/>
    <line x1="21" y1="12" x2="9" y2="12"/>
  </symbol>

  <symbol id="icon-login" viewBox="0 0 24 24">
    <path d="M15 3h4a2 2 0 0 1 2 2v14a2 2 0 0 1-2 2h-4"/>
    <polyline points="10 17 15 12 10 7"/>
    <line x1="15" y1="12" x2="3" y2="12"/>
  </symbol>

  <symbol id="icon-dashboard" viewBox="0 0 24 24">
    <rect x="3" y="3" width="7" height="7"/>
    <rect x="14" y="3" width="7" height="7"/>
    <rect x="14" y="14" width="7" height="7"/>
    <rect x="3" y="14" width="7" height="7"/>
  </symbol>

  <symbol id="icon-camera" viewBox="0 0 24 24">
    <path d="M23 7l-7 5 7 5V7z"/>
    <rect x="1" y="5" width="15" height="14" rx="2"/>
  </symbol>

  <symbol id="icon-journal" viewBox="0 0 24 24">
    <path d="M14 2H6a2 2 0 0 0-2 2v16a2 2 0 0 0 2 2h12a2 2 0 0 0 2-2V8z"/>
    <polyline points="14 2 14 8 20 8"/>
    <line x1="8" y1="13" x2="16" y2="13"/>
    <line x1="8" y1="17" x2="13" y2="17"/>
  </symbol>

  <symbol id="icon-admin" viewBox="0 0 24 24">
    <path d="M12 2l8 3v6c0 5-3.5 8.5-8 11-4.5-2.5-8-6-8-11V5l8-3z"/>
    <circle cx="12" cy="10" r="2.5"/>
    <path d="M8.5 16a3.5 3.5 0 0 1 7 0"/>
  </symbol>

  <symbol id="icon-antenna" viewBox="0 0 24 24">
    <path d="M12 12v9"/>
    <circle cx="12" cy="9" r="2"/>
    <path d="M7.5 13.5a6 6 0 0 1 0-9"/>
    <path d="M4.8 16.2a10 10 0 0 1 0-15"/>
    <path d="M16.5 4.5a6 6 0 0 1 0 9"/>
    <path d="M19.2 1.2a10 10 0 0 1 0 15"/>
  </symbol>

  <symbol id="icon-router" viewBox="0 0 24 24">
    <rect x="2" y="13" width="20" height="8" rx="2"/>
    <circle cx="6" cy="17" r="1"/>
    <path d="M12 13V8"/>
    <path d="M9 8a3 3 0 0 1 6 0"/>
    <path d="M6.5 8a5.5 5.5 0 0 1 11 0"/>
  </symbol>

  <symbol id="icon-siren" viewBox="0 0 24 24">
    <path d="M5 21h14"/>
    <path d="M7 21v-6a5 5 0 0 1 10 0v6"/>
    <path d="M12 4V2"/>
    <path d="M5.5 6.5L4 5"/>
    <path d="M18.5 6.5L20 5"/>
  </symbol>

  <symbol id="icon-bell" viewBox="0 0 24 24">
    <path d="M18 8a6 6 0 0 0-12 0c0 7-3 9-3 9h18s-3-2-3-9"/>
    <path d="M13.7 21a2 2 0 0 1-3.4 0"/>
  </symbol>

  <symbol id="icon-door" viewBox="0 0 24 24">
    <path d="M3 21h18"/>
    <path d="M6 21V4a1 1 0 0 1 1-1h10a1 1 0 0 1 1 1v17"/>
    <path d="M14 12h.5"/>
  </symbol>

  <symbol id="icon-window" viewBox="0 0 24 24">
    <rect x="4" y="3" width="16" height="18" rx="1"/>
    <line x1="12" y1="3" x2="12" y2="21"/>
    <line x1="4" y1="12" x2="20" y2="12"/>
  </symbol>

  <symbol id="icon-dot" viewBox="0 0 24 24">
    <circle cx="12" cy="12" r="4"/>
  </symbol>

  <symbol id="icon-plug" viewBox="0 0 24 24">
    <path d="M9 2v6M15 2v6"/>
    <path d="M7 8h10v3a5 5 0 0 1-10 0V8z"/>
    <path d="M12 16v6"/>
  </symbol>

  <symbol id="icon-detection" viewBox="0 0 24 24">
    <path d="M3 8V5a2 2 0 0 1 2-2h3"/>
    <path d="M16 3h3a2 2 0 0 1 2 2v3"/>
    <path d="M21 16v3a2 2 0 0 1-2 2h-3"/>
    <path d="M8 21H5a2 2 0 0 1-2-2v-3"/>
    <circle cx="12" cy="12" r="3"/>
  </symbol>
</svg>
